<svg xmlns="http://www.w3.org/2000/svg" xmlns:xlink="http://www.w3.org/1999/xlink" version="1.1" id="Layer_1" x="0px" y="0px" viewBox="0 0 298.8 298.8" style="enable-background:new 0 0 298.8 298.8;" xml:space="preserve">
<style type="text/css">
	.st0{fill:#555;}
</style>
<path class="st0" d="M207.9,58.3c-11.7,3-22.7,7.9-33,14.2c-22.1,13.3-40,31-54.4,52.4c-9.5,14.1-17.2,29-22,45.3  c-3.7,12.3-5.6,24.9-6.2,37.6c0,0.9,0.3,2.2-0.4,2.5c-0.7,0.4-1.5-0.7-2.3-1.2c-2.3-1.5-4.6-3.1-6.9-4.6  c-10.6-6.9-16.4-16.9-18.6-29.1c-2.5-14-0.3-27.3,5.6-40.3c8.4-18.6,21.3-33.2,37.6-45.2c12.3-9,25.5-16.6,39-23.6  C158.4,60,171.1,55,184.5,52c13.4-3,26.9-3.6,40.4-0.9c0.3,0,0.5,0.1,0.8,0.2c1,0.1,1.2,0.6,1,1.6c-1.3,4.4-2.5,8.9-3.7,13.3  c-4.9,18.6-8.6,37.5-10.7,56.7c-1,9.3-1.8,18.6-2.7,27.9c-1.5,15-3.6,29.8-7.9,44.3c-3.8,12.7-11.3,22.6-22.1,30.1  c-10.8,7.5-22.8,11.5-36,11.5c-11.3,0-21.6-3.4-30.5-10.6c-0.3-0.2-0.5-0.6-0.9-0.5c-0.4,0.1-0.2,0.5-0.2,0.8  c1.3,9.2,3.4,18.1,7.7,26.4c1.1,2.1,2.3,4,3.8,5.8c0.4,0.5,0.7,1,0.5,1.6c-0.6,3.1-1.4,6.1-3,8.9c-0.2,0.4-0.5,0.8-0.8,1.2  c-1.6,1.9-3.4,2.1-5.3,0.6c-1.6-1.2-2.7-2.9-3.7-4.6c-2.7-4.6-4.7-9.6-6.2-14.7c-4-13.2-6.3-26.6-5.4-40.4  c2.4-39.3,14.7-75,40.7-105.2c14.2-16.5,31.2-29.6,50.5-39.7c5.7-3,11.6-5.6,17.7-7.8c0.6-0.6,1.5-0.5,1.9-0.7  c0.5-0.1,0.3,0.1,0.3,0C209.7,57.9,208.8,58.3,207.9,58.3z"/>
<path class="st0" d="M298.8,149.4c0,82.5-66.9,149.4-149.4,149.4S0,231.9,0,149.4S66.9,0,149.4,0S298.8,66.9,298.8,149.4z   M149.4,18.7c-72.2,0-130.8,58.5-130.8,130.8s58.5,130.8,130.8,130.8s130.8-58.5,130.8-130.8S221.6,18.7,149.4,18.7z"/>
</svg>
