<?xml version="1.0" encoding="utf-8"?>
<svg version="1.1" id="Layer_1" xmlns="http://www.w3.org/2000/svg" xmlns:xlink="http://www.w3.org/1999/xlink" x="0px" y="0px"
	 width="612px" height="150px" viewBox="0 0 612 150" style="enable-background:new 0 0 612 150;" xml:space="preserve">
<style type="text/css">
	.st0{fill:#FF0000;}
	color: #ff0000;
</style>
<g>
	<path d="M20.2,93.4L7.3,129c-0.1,0.6-0.4,0.8-0.9,0.8H0.7c-0.6,0-0.8-0.3-0.6-0.9l34.5-94c0.3-0.9,0.6-1.5,0.8-4.2
		c0-0.3,0.3-0.6,0.6-0.6h8.7c0.6,0,0.8,0.1,0.9,0.6l35.8,98.2c0.1,0.6,0,0.9-0.6,0.9h-6.1c-0.4,0-0.7-0.1-0.9-0.6l-13-35.7H20.2z
		 M58.6,86.7c-3.4-9.7-15.1-41.4-18-51.1h-0.1c-2.7,9.4-10.9,31.6-18,51.1H58.6z"/>
	<path d="M89.9,94.3c0-22.2,16.8-37.8,39.3-37.8c5.8,0,9,0.4,12.3,1.2V22.2c0-0.6,0.2-0.8,0.8-0.8h5.7c0.8,0,0.8,0.1,0.8,0.8v98.2
		c0,1.2,0,2.6,0.2,4.6c0,0.5-0.2,0.6-0.6,0.9c-7.3,3.7-14.7,5.2-22.5,5.2C105.7,131.2,89.9,118.6,89.9,94.3z M141.5,65.1
		c-3-1.5-7.5-2.1-12.6-2.1c-20.7,0-31.6,14.4-31.6,30.9c0,22.5,14.7,30.7,29.1,30.7c4.8,0,10.9-0.6,15.1-2.6V65.1z"/>
	<path d="M231.2,93.9c0,22.2-13.2,37.3-32.4,37.3c-23.1,0-33-19.6-33-37.3c0-21.3,13.3-37.3,32.8-37.3
		C218,56.5,231.2,71.4,231.2,93.9z M173,93.6c0,16.5,9.3,31,26.2,31c11.7,0,24.7-9,24.7-30.6c0-15.4-7.3-31-25.8-31
		C183.2,63,173,75.6,173,93.6z"/>
	<path d="M254.9,21.4c0.5,0,0.8,0,0.8,0.6v38.2c5.4-2.4,11.4-3.7,18.4-3.7c19.9,0,33.1,14.2,33.1,34.6c0,26.2-19.3,40-39.4,40
		c-7.2,0-12.7-0.9-18.6-2.9c-0.4-0.1-0.8-0.6-0.8-1.2V22c0-0.4,0.3-0.6,0.9-0.6H254.9z M273.3,63c-7.6,0-12.9,1.3-17.7,3.6v56.5
		c3.6,1,7.2,1.6,12.6,1.6c16.5,0,31.8-11.2,31.8-33.1C300,75.1,290.1,63,273.3,63z"/>
	<path d="M327.2,92.7c-0.8,18.1,8.8,31.8,27.4,31.8c6.4,0,12.9-1,18.7-4.2c0.5-0.3,0.8-0.1,0.8,0.5v4.9c0,0.6-0.2,0.9-0.6,1
		c-4.5,2.5-11.1,4.5-19.9,4.5c-24.4,0-33.6-18.7-33.6-36.9c0-21.1,12.1-37.8,31.2-37.8c20.7,0,27.7,17.1,27.7,28.5
		c0,3.3-0.2,5.1-0.5,6.3c0,0.5-0.5,0.9-1,0.9c-2.2,0.3-9.6,0.5-15.4,0.5H327.2z M360.6,86.8c9.2,0,10.7-0.1,11.1-0.3
		c0.2-0.5,0.2-1.5,0.2-1.9c0-6.6-3.9-21.7-20.8-21.7c-14.4,0-21.9,11.5-23.5,24H360.6z"/>
	<path d="M448.1,128.4c0,1.1-0.3,1.4-1.2,1.4h-15.7c-0.9,0-1.2-0.5-1.2-1.4v-96c0-1,0.5-1.2,1.2-1.2h15.7c0.9,0,1.2,0.3,1.2,1.2
		V128.4z"/>
	<path d="M479,135.4c-0.2,0.6-0.5,0.8-1,0.8h-12.5c-0.8,0-0.9-0.3-0.8-0.9l29.5-109.9c0.2-0.6,0.3-0.6,0.9-0.6h12.6
		c0.6,0,0.8,0.1,0.6,0.8L479,135.4z"/>
	<path d="M612,79.9c0.1,31-19,51.3-46.3,51.3c-29.1,0-46.5-21.6-46.5-50.8c0-28.8,18.9-50.7,46.5-50.7
		C595.1,29.7,611.9,52.2,612,79.9z M566.3,115.2c16.9,0,27.1-13.9,27-34.8c0-21-10.3-34.6-27.9-34.6c-15.9,0-27.4,12.4-27.4,34.6
		C537.9,99.7,547.8,115.2,566.3,115.2z"/>
</g>
</svg>
