<svg xmlns="http://www.w3.org/2000/svg" width="285" height="282.5" viewBox="0 0 285 282.5"><path fill="none" stroke="#FFF" stroke-width="2" d="M227.944 46.924L32.343 78.713l6.456-9.281L218.66 39.825z"/><path fill="#FFF" d="M142.724 15.152c38.726-.002 65.636 18.242 65.636 18.242L46.124 60.003S74 24.75 123 16.75a122.418 122.418 0 0 1 19.724-1.598m.006 2h-.006c-6.489 0-13.017.529-19.401 1.571-37.707 6.157-62.902 28.95-71.929 38.389l151.193-24.798c-9.22-5.014-31.397-15.162-59.857-15.162z"/><path fill="none" stroke="#FFF" stroke-width="2" d="M58.694 237.122l191.65-30.659-6.326 8.951-176.227 28.555z"/><path fill="#FFF" d="M236.841 224.508s-27.312 33.999-75.322 41.716a121.727 121.727 0 0 1-19.325 1.541c-37.944 0-64.31-17.595-64.31-17.595l158.957-25.662m-5.321 2.885L83.747 251.249c9.148 4.87 30.763 14.516 58.447 14.516 6.355 0 12.75-.51 19.007-1.516 24.348-3.914 43.178-14.834 54.686-23.307 7.119-5.24 12.395-10.217 15.633-13.549z"/><path fill="none" stroke="#FFF" stroke-width="2" d="M142.5 1C64.352 1 1 63.792 1 141.25 1 218.707 64.352 281.5 142.5 281.5c78.147 0 141.5-62.793 141.5-140.25C284 63.792 220.647 1 142.5 1zm0 273C68.77 274 9 214.565 9 141.25 9 67.934 68.77 8.5 142.5 8.5 216.229 8.5 276 67.934 276 141.25 276 214.565 216.229 274 142.5 274z"/><path fill="#FFF" d="M123.825 175.39c1.35 0 2.023 1.718 2.023 5.151 0 2.943-2.131 9.412-6.392 19.406-.767 1.932-1.15 3.143-1.15 3.633h.139c4.047-.49 6.897-.735 8.553-.735h.322c.521 0 .95.291 1.288.874v.598c0 .889-.874 1.333-2.622 1.333-3.709.185-6.806.552-9.289 1.104-.95-.307-1.426-.736-1.426-1.288 0-2.115 2.162-8.293 6.484-18.533.89-2.422 1.334-4.599 1.334-6.53v-.598c0-1.042-.199-1.563-.598-1.563-1.411 0-2.913 1.441-4.507 4.323l-.828.321c-.521 0-.966-.291-1.334-.873v-.185c0-1.287 1.073-2.928 3.22-4.921 1.473-1.011 3.066-1.517 4.783-1.517zM140.473 174.746c2.606 0 4.293.675 5.059 2.023 1.349 1.993 2.023 4.798 2.023 8.416v.92c0 6.897-1.641 13.121-4.92 18.671-1.503 2.023-2.897 3.035-4.186 3.035h-.321c-2.913 0-4.783-2.407-5.611-7.221l-.321-4.23v-1.012c0-6.315 1.303-12.019 3.909-17.107 1.624-2.33 3.081-3.495 4.368-3.495zM135 195.486v1.012c.215 5.703 1.119 8.554 2.714 8.554h.598c1.932 0 3.909-4.108 5.933-12.324.368-2.115.552-4.139.552-6.07v-2.161c-.245-4.538-1.104-6.807-2.575-6.807h-.92l-.506.138-.598-.138c-.981 0-2.3 2.453-3.955 7.358A45.094 45.094 0 0 0 135 195.486zM152.889 172.814c1.073 0 1.61 1.503 1.61 4.507l.138 3.128-1.012 22.304v1.655l.322.828h.138c-.338 1.287-.828 1.931-1.472 1.931-1.165 0-1.748-.827-1.748-2.483v-2.437l1.059-21.891-.322-6.53c.368-.674.796-1.012 1.287-1.012zM164.8 171.619c3.771.307 5.656.92 5.656 1.84l.138.184v.138c-.459.798-.904 2.545-1.333 5.243l-3.587 8.048c2.637 4.384 4.047 7.25 4.23 8.6l.276 2.115c0 3.25-1.61 6.009-4.829 8.277l-1.84.322h-.275c-2.882 0-4.537-1.794-4.967-5.381v-.138c0-2.943 1.349-7.48 4.047-13.612-1.9-3.434-2.852-6.178-2.852-8.231v-.46l-.184-.185c0-3.065 1.211-5.227 3.633-6.483l1.887-.277zm-.874 18.533c-1.932 4.66-2.896 8.14-2.896 10.438v.69c.245 1.655 1.072 2.483 2.482 2.483h.139c1.594 0 2.79-1.732 3.587-5.197v-1.472c0-1.931-1.012-4.246-3.035-6.943h-.277zm-1.747-12.877v2.023c0 1.595.521 3.188 1.563 4.783h.184c2.115-3.802 3.174-6.653 3.174-8.554 0-.767-.338-1.15-1.012-1.15l-1.288-.184c-1.747.278-2.621 1.304-2.621 3.082z"/><g fill="#FFF"><path d="M51.141 88.703c1.042 0 1.781.625 2.219 1.875.062.125.094.308.094.547 0 .261-.162.406-.484.438-.281 0-.458-.344-.531-1.031-.354-.594-.75-.891-1.188-.891h-.219c-.636 0-1.011.625-1.125 1.875v.047c0 1.5.953 3.766 2.859 6.797.594 1.156.891 2.125.891 2.906 0 1.062-.542 1.886-1.625 2.469l-.547.094c-.958 0-1.875-.656-2.75-1.969a1.857 1.857 0 0 1-.25-.938c0-.531.182-.828.547-.891h.141c.229.156.344.302.344.438l-.094.453v.031c0 .677.557 1.302 1.672 1.875l.297.062h.141c.542 0 .938-.463 1.188-1.391v-.188c0-1.114-.724-2.755-2.172-4.922-1.042-2.052-1.562-3.661-1.562-4.828 0-1.312.505-2.229 1.516-2.75l.638-.108zM73.416 88.578h.047c.822.031 1.234.146 1.234.344v.312a.621.621 0 0 1-.391.328l-.688-.047h-.344v.047c.146 8.365.375 12.547.688 12.547l1.672-.234c.229.104.344.25.344.438v.047c0 .333-.641.552-1.922.656-.854.156-1.511.234-1.969.234-.229-.094-.344-.245-.344-.453 0-.354.391-.531 1.172-.531v-.062c-.261-1.698-.453-5.896-.578-12.594h-.062l-1.422.25c-.261-.114-.391-.292-.391-.531 0-.302.656-.516 1.969-.641.001-.052.329-.089.985-.11zM94.753 88.828c.281 0 .494.734.641 2.203.76 4.365 1.547 7.662 2.359 9.891h.094c.302-4.406.453-7.88.453-10.422v-.156c0-.333-.031-.5-.094-.5.104-.354.286-.531.547-.531.322 0 .484.323.484.969v.359c-.209 8.458-.506 12.688-.891 12.688l-.25.109c-.292 0-.604-.526-.938-1.578-.553-1.271-1.156-3.391-1.812-6.359-.178-1.01-.308-1.516-.391-1.516v.094l.047 3.5v5.922c0 .26-.151.391-.453.391-.334 0-.5-.255-.5-.766v-.5c0-.552.005-2.198.016-4.938l-.047-4c0-3.219.146-4.828.438-4.828l.297-.032zM119.419 88.312c.291.115.438.281.438.5 0 .24-.297.438-.891.594-1.021.74-1.531 2.542-1.531 5.406 0 3.448.609 5.912 1.828 7.391.281.229.489.344.625.344.729 0 1.177-1.088 1.344-3.266l.062-.688c-.031-.489-.089-.734-.172-.734-.365.146-.917.448-1.656.906l-.297.047c-.178 0-.328-.151-.453-.453 0-.25.359-.531 1.078-.844.614-.396 1.078-.594 1.391-.594.594 0 .938.464 1.031 1.391v.094c0 2.667-.578 4.323-1.734 4.969-.312.021-.469.052-.469.094-1.511 0-2.6-1.802-3.266-5.406a21.241 21.241 0 0 1-.234-3.016v-.328c0-3.146.666-5.182 2-6.109.458-.198.759-.298.906-.298zM144.131 88.719c.156 0 .307.151.453.453l-.047.234c.906 5.99 1.541 10.552 1.906 13.688-.104.292-.266.438-.484.438-.365 0-.584-.781-.656-2.344l-.172-1.234-.86.046c-.542 0-1.359-.067-2.453-.203-.771 2.636-1.297 3.953-1.578 3.953h-.031c-.334-.094-.5-.261-.5-.5.844-2.062 1.76-5.594 2.75-10.594.427-1.542.817-2.786 1.172-3.734a.714.714 0 0 1 .5-.203zm-2.063 10.14a7.819 7.819 0 0 0 1.812.203h.844a.387.387 0 0 0 .297-.141l-1.141-7.594h-.031c-.209.323-.511 1.458-.906 3.406l-.875 4.126zM165.859 88.422c1.021 0 1.797.636 2.328 1.906l.094.594c0 1.188-.672 2.745-2.016 4.672-.448.438-.859.719-1.234.844l.047.438.094 6.109c0 .24-.162.385-.484.438-.292 0-.438-.198-.438-.594 0-4.552-.1-6.828-.297-6.828-.261-.364-.391-.641-.391-.828 0-.208.161-.344.484-.406l-.156-4.812c0-.792.172-1.188.516-1.188l.281.047c.396-.262.787-.392 1.172-.392zm-.968 1.469l.109 5.125.031.344c.688-.271 1.359-1.307 2.016-3.109.208-.489.312-.979.312-1.469-.292-.948-.75-1.422-1.375-1.422h-.219c-.333-.001-.624.177-.874.531zM187.416 89.906c1.396 0 2.521 1.953 3.375 5.859.114.812.192 1.646.234 2.5 0 2.531-.672 4.24-2.016 5.125-.531.198-.943.297-1.234.297-1.104 0-1.839-.885-2.203-2.656-.178-.677-.266-1.463-.266-2.359v-.25c0-2.427.416-5.016 1.25-7.766V90.5l-.062-.047c.114-.364.422-.547.922-.547zm.063.922c-.823 2.396-1.234 4.927-1.234 7.594v.141c0 2.302.38 3.662 1.141 4.078l.391.109h.156c.916 0 1.567-.823 1.953-2.469a6.04 6.04 0 0 0 .156-1.453v-.906c0-2.521-.656-4.766-1.969-6.734-.251-.24-.449-.36-.594-.36zM211.706 88.25c.938.083 1.5.938 1.688 2.562v.656c-.125 1.302-.781 2.609-1.969 3.922.229.49.703 2.062 1.422 4.719l1.312 3c-.136.281-.312.406-.531.375-.281-.011-.719-.817-1.312-2.422-.406-.802-.854-2.281-1.344-4.438-.125-.375-.225-.567-.297-.578l-1.047.547c.021 2.281.114 4.433.281 6.453-.021.167-.151.317-.391.453l-.156-.016c-.292-.021-.438-.344-.438-.969-.281-5.698-.318-9.692-.109-11.984-.209-.188-.303-.375-.281-.562.01-.073.125-.213.344-.422.031-.427.213-.62.547-.578l.234.109c.875-.603 1.557-.879 2.047-.827zm-1.953 1.922c-.115 2.281-.151 4.058-.109 5.328l.141.016c1.021-.479 1.869-1.604 2.547-3.375l.109-.672.016-.141c.094-.948-.12-1.661-.641-2.141l-.25-.016c-.355-.03-.96.303-1.813 1.001zM232.169 88.281c.26 0 .411.198.453.594h-.047l.047.156c.354 0 1.338-.109 2.953-.328.26.094.391.255.391.484 0 .333-.703.547-2.109.641l-1.375.188v.688c0 .49.197 2.474.594 5.953h2c.271 0 .438.151.5.453 0 .323-.245.484-.734.484h-1.766v.062l-.047 3.234c0 .771.078 1.333.234 1.688l3.094-.203c.333.042.5.188.5.438 0 .333-.365.5-1.094.5-1.875.104-2.812.203-2.812.297-.375 0-.636-.573-.781-1.719l-.078-1.188.031-3.547-.578-6.453v-.484c0-1.292.192-1.938.578-1.938h.046z"/></g><g fill="#FFF"><path d="M19.312 119.047c.656 0 1.25.938 1.781 2.812h.281c1.062-.812 2.547-1.296 4.453-1.453 5.531 0 9.234 5 11.109 15l.703 7.828c0 8.938-3.188 14.75-9.562 17.438l-2.438.281h-.094c-.688 0-1.719-.234-3.094-.703v.422l.141.891c0 .438-.438.875-1.312 1.312-1.188 0-1.781-1.281-1.781-3.844-.813-10.969-1.219-17.703-1.219-20.203l.469-13.781c0-1.406-.344-2.953-1.031-4.641.001-.718.532-1.172 1.594-1.359zm1.782 19.594l.703 15.516c.781 2.688 1.922 4.031 3.422 4.031h1.219c1.688 0 3.546-1.281 5.578-3.844 1.781-2.844 2.672-6.203 2.672-10.078v-2.484c0-6.25-1.282-11.515-3.844-15.797-1.5-1.781-2.875-2.672-4.125-2.672h-1.781c-2 0-3.141 1.235-3.422 3.703l-.422 11.625zM45.291 115.344c.781 0 1.234.594 1.359 1.781h-.141l.141.469c1.062 0 4.015-.328 8.859-.984.781.281 1.172.766 1.172 1.453 0 1-2.109 1.641-6.328 1.922l-4.125.562v2.062c0 1.469.593 7.422 1.781 17.859h6c.812 0 1.312.453 1.5 1.359 0 .969-.734 1.453-2.203 1.453h-5.297v.188l-.141 9.703c0 2.312.234 4 .703 5.062l9.281-.609c1 .125 1.5.562 1.5 1.312 0 1-1.094 1.5-3.281 1.5-5.625.312-8.438.609-8.438.891-1.125 0-1.906-1.719-2.344-5.156l-.234-3.562.094-10.641-1.734-19.359v-1.453c0-3.875.578-5.812 1.734-5.812h.142zM79.331 116.375c.625.063 1 .532 1.125 1.406-1.125 6.781-2.203 14.203-3.234 22.266-1.562 6.375-2.516 11.359-2.859 14.953l-.141 4.641c-.281.625-.797.906-1.547.844-1.094-.094-2.031-3.281-2.812-9.562-.781-4.406-2.094-13.312-3.938-26.719l-1.125-5.625c.312-.75.844-1.109 1.594-1.078 1 .094 1.656 2.047 1.969 5.859.688 3.438 1.938 11.859 3.75 25.266l.141.141h.141c1.312-4.844 2.969-14.812 4.969-29.906.155-1.783.811-2.611 1.967-2.486zM86.935 117.312c.688 0 1.125.594 1.312 1.781h8.25c1.094 0 1.641.532 1.641 1.594-.188.813-.781 1.219-1.781 1.219h-7.688l1.5 14.578h4.266c1.094 0 1.641.547 1.641 1.641-.188.781-.781 1.172-1.781 1.172H90.45v.141c.875 9.375 1.312 15.125 1.312 17.25v2.859c0 1.188-.438 1.781-1.312 1.781h-.609c-.562-.375-.844-.812-.844-1.312v-2.25c0-5.406-1.188-18.5-3.562-39.281.218-.781.718-1.173 1.5-1.173zM105.928 115.344c.781 0 1.234.594 1.359 1.781h-.141l.141.469c1.062 0 4.016-.328 8.859-.984.781.281 1.172.766 1.172 1.453 0 1-2.109 1.641-6.328 1.922l-4.125.562v2.062c0 1.469.594 7.422 1.781 17.859h6c.812 0 1.312.453 1.5 1.359 0 .969-.734 1.453-2.203 1.453h-5.297v.188l-.141 9.703c0 2.312.234 4 .703 5.062l9.281-.609c1 .125 1.5.562 1.5 1.312 0 1-1.094 1.5-3.281 1.5-5.625.312-8.438.609-8.438.891-1.125 0-1.906-1.719-2.344-5.156l-.234-3.562.094-10.641-1.734-19.359v-1.453c0-3.875.578-5.812 1.734-5.812h.142zM133.5 116.609c3.125 0 5.344 1.875 6.656 5.625.188.375.281.922.281 1.641 0 .781-.484 1.219-1.453 1.312-.844 0-1.375-1.031-1.594-3.094-1.062-1.781-2.25-2.672-3.562-2.672h-.656c-1.906 0-3.031 1.875-3.375 5.625v.141c0 4.5 2.859 11.297 8.578 20.391 1.781 3.469 2.672 6.375 2.672 8.719 0 3.188-1.625 5.656-4.875 7.406l-1.641.281c-2.875 0-5.625-1.969-8.25-5.906a5.575 5.575 0 0 1-.75-2.812c0-1.594.547-2.484 1.641-2.672h.422c.688.469 1.031.906 1.031 1.312l-.281 1.359v.094c0 2.031 1.672 3.906 5.016 5.625l.891.188h.422c1.625 0 2.812-1.391 3.562-4.172v-.562c0-3.344-2.172-8.266-6.516-14.766-3.125-6.156-4.688-10.984-4.688-14.484 0-3.938 1.516-6.687 4.547-8.25l1.922-.329zM152.635 115.672h2.344c3.094 0 5.172.547 6.234 1.641l.281.891v.141c0 .781-.484 1.219-1.453 1.312-.938-.781-2.812-1.172-5.625-1.172h-.469v.188c0 5.782.07 13.797.211 24.047s.617 15.922 1.43 17.016c-.312.875-.844 1.312-1.594 1.312-1.312 1.406-2.109-3.969-2.391-16.125s-.422-20.906-.422-26.25v-.188l-4.172.281c-.781-.344-1.172-.828-1.172-1.453.001-1.094 2.267-1.641 6.798-1.641zM170.878 157.25c.719 0 1.219.453 1.5 1.359 0 .656-.547 1.25-1.641 1.781-.812 0-1.297-.547-1.453-1.641.469-.999 1-1.499 1.594-1.499zM194.325 116.656c.469 0 .922.453 1.359 1.359l-.141.703c2.719 17.969 4.625 31.656 5.719 41.062-.312.875-.797 1.312-1.453 1.312-1.094 0-1.75-2.344-1.969-7.031l-.516-3.703-2.578.141c-1.625 0-4.078-.203-7.359-.609-2.312 7.906-3.891 11.859-4.734 11.859h-.094c-1-.281-1.5-.781-1.5-1.5 2.531-6.188 5.281-16.781 8.25-31.781 1.281-4.625 2.453-8.359 3.516-11.203.438-.405.938-.609 1.5-.609zm-6.187 30.422c1.719.406 3.531.609 5.438.609h2.531c.344 0 .641-.141.891-.422l-3.422-22.781h-.094c-.625.969-1.531 4.375-2.719 10.219l-2.625 12.375zM214.678 116.609c3.125 0 5.344 1.875 6.656 5.625.188.375.281.922.281 1.641 0 .781-.484 1.219-1.453 1.312-.844 0-1.375-1.031-1.594-3.094-1.062-1.781-2.25-2.672-3.562-2.672h-.656c-1.906 0-3.031 1.875-3.375 5.625v.141c0 4.5 2.859 11.297 8.578 20.391 1.781 3.469 2.672 6.375 2.672 8.719 0 3.188-1.625 5.656-4.875 7.406l-1.641.281c-2.875 0-5.625-1.969-8.25-5.906a5.575 5.575 0 0 1-.75-2.812c0-1.594.547-2.484 1.641-2.672h.422c.688.469 1.031.906 1.031 1.312l-.281 1.359v.094c0 2.031 1.672 3.906 5.016 5.625l.891.188h.422c1.625 0 2.812-1.391 3.562-4.172v-.562c0-3.344-2.172-8.266-6.516-14.766-3.125-6.156-4.688-10.984-4.688-14.484 0-3.938 1.516-6.687 4.547-8.25l1.922-.329zM234.703 116.234h.141c2.469.094 3.703.438 3.703 1.031v.938c-.219.469-.609.797-1.172.984l-2.062-.141h-1.031v.141c.438 25.094 1.125 37.641 2.062 37.641l5.016-.703c.688.312 1.031.75 1.031 1.312v.141c0 1-1.922 1.656-5.766 1.969-2.562.469-4.531.703-5.906.703-.688-.281-1.031-.734-1.031-1.359 0-1.062 1.172-1.594 3.516-1.594v-.188c-.781-5.094-1.359-17.688-1.734-37.781h-.188l-4.266.75c-.781-.344-1.172-.875-1.172-1.594 0-.906 1.969-1.547 5.906-1.922 0-.156.984-.265 2.953-.328zM261.01 116.656c.469 0 .922.453 1.359 1.359l-.141.703c2.719 17.969 4.625 31.656 5.719 41.062-.312.875-.797 1.312-1.453 1.312-1.094 0-1.75-2.344-1.969-7.031l-.516-3.703-2.578.141c-1.625 0-4.078-.203-7.359-.609-2.312 7.906-3.891 11.859-4.734 11.859h-.094c-1-.281-1.5-.781-1.5-1.5 2.531-6.188 5.281-16.781 8.25-31.781 1.281-4.625 2.453-8.359 3.516-11.203.437-.405.937-.609 1.5-.609zm-6.188 30.422c1.719.406 3.531.609 5.438.609h2.531c.344 0 .641-.141.891-.422l-3.422-22.781h-.094c-.625.969-1.531 4.375-2.719 10.219l-2.625 12.375z"/></g></svg>