<?xml version="1.0" encoding="UTF-8" standalone="no"?>
<svg width="111px" height="39px" viewBox="0 0 111 39" version="1.1" xmlns="http://www.w3.org/2000/svg" xmlns:xlink="http://www.w3.org/1999/xlink">
<g id="Group-2" transform="translate(85.454545, 0.000000)">
    <path d="M7.88618182,37.2665455 C6.8910303,37.8604848 5.98557576,38.2144242 5.03527273,38.2144242 C2.57709091,38.2144242 0.520121212,36.2010909 0.403757576,33.781697 L5.19406061,30.9271515 L12.6401212,34.2568485 L7.88618182,37.2665455 Z" id="Fill-512" fill="#73B6D8"></path>
    <path d="M10.7341818,25.0069091 L7.17539394,23.4384242 C5.58630303,22.7293333 4.08690909,22.1390303 4.08690909,20.3875152 C4.08690909,19.4808485 4.36084848,19.0069091 4.796,18.5317576 L12.3196364,21.8517576 L10.4541818,22.9269091 C9.94145455,23.2432727 9.58509091,23.5184242 9.58509091,23.9147879 C9.58509091,24.3438788 10.0735758,24.7075152 10.7341818,25.0069091" id="Fill-514" fill="#A8D2A1"></path>
    <path d="M14.2288485,8.58860606 L10.5815758,10.8019394 C10.2579394,10.998303 9.82521212,11.3122424 9.82521212,11.7970909 C9.82521212,12.3510303 10.6676364,12.7740606 11.4155152,13.1304242 L6.85309091,11.118303 C5.50763636,10.5255758 4.16460606,9.85284848 4.16460606,8.23224242 C4.16460606,7.5510303 4.3609697,6.99830303 4.67854545,6.52678788 L14.5464242,0.496484848 C15.7270303,1.16678788 16.873697,2.52315152 16.873697,4.34254545 C16.873697,6.28921212 15.8870303,7.59224242 14.2288485,8.58860606" id="Fill-516" fill="#73B6D8"></path>
    <path d="M21.9894545,15.7179394 L21.0815758,16.2306667 L13.5458182,12.9033939 L22.3033939,7.63187879 C23.4864242,8.31309091 24.6476364,9.65369697 24.6476364,11.4718788 C24.6476364,13.4185455 23.6876364,14.7603636 21.9894545,15.7179394" id="Fill-518" fill="#A8D2A1"></path>
    <path d="M15.6261818,22.1152727 L20.0831515,24.0740606 C21.7534545,24.8231515 22.2673939,25.7007273 22.2673939,26.8110303 C22.2673939,27.4401212 21.9110303,28.0728485 21.398303,28.508 L13.9037576,25.1807273 L15.1716364,24.468 C16.2443636,23.8764848 16.5995152,23.5189091 16.5995152,23.1249697 C16.5995152,22.7152727 16.3498182,22.4449697 15.6261818,22.1152727" id="Fill-520" fill="#73B6D8"></path>
    <path d="M23.5727273,38.5694545 C21.6733333,37.1100606 19.6515152,36.1221818 17.189697,35.0070303 L5.82484848,29.9779394 C2.96909091,28.7052121 1.07454545,27.0082424 1.07454545,24.1500606 C1.07454545,21.3767273 2.41757576,20.0324848 4.16424242,18.9294545 L4.79575758,18.5330909 C4.36181818,19.0058182 4.08666667,19.4809697 4.08666667,20.3876364 C4.08666667,22.1379394 5.58606061,22.7294545 7.17515152,23.4397576 L20.4018182,29.2676364 C22.7,30.2555152 24.8078788,31.953697 24.8078788,34.8470303 C24.8078788,36.4373333 24.2006061,37.8603636 23.5727273,38.5694545" id="Fill-522" fill="#35AC46"></path>
    <path d="M22.2287273,27.993697 L21.3984242,28.5076364 C21.9111515,28.0749091 22.2650909,27.4397576 22.2650909,26.8094545 C22.2650909,25.7015758 21.7523636,24.8227879 20.0832727,24.0749091 L5.94387879,17.8506667 C3.08690909,16.5876364 1.31357576,14.9573333 1.31357576,12.1149091 C1.31357576,9.49672727 2.6129697,7.78763636 4.67842424,6.5270303 C4.36084848,6.99854545 4.16448485,7.55127273 4.16448485,8.23248485 C4.16448485,9.85187879 5.50751515,10.5246061 6.8529697,11.1185455 L20.596,17.1815758 C23.0941818,18.2858182 25.1172121,19.953697 25.1172121,23.0070303 C25.1172121,25.3852121 24.0044848,26.8870303 22.2287273,27.993697" id="Fill-524" fill="#007EB2"></path>
</g>
<g id="Group" transform="translate(0.000000, 3.636364)" fill="#0078AD">
    <path d="M21.6301064,11.4499837 L20.4811929,11.4499837 C19.7157531,11.4499837 19.3958566,10.9592077 19.3958566,10.2528219 L19.3958566,5.18272579 L21.6301064,5.18272579 L21.6301064,3.75311752 L19.3958566,3.75311752 L19.3958566,1.05900074 L17.7850658,1.05900074 L17.7850658,10.2294516 C17.7850658,12.1646622 18.7558123,12.9884021 20.4781774,12.9884021 L21.6301064,12.9884021 L21.6301064,11.4499837 Z" id="Fill-3164"></path>
    <path d="M6.13816851,8.62464154 L6.13816851,8.69022912 C6.13816851,11.9731264 8.82223356,13.1496822 11.3329061,13.1496822 C13.7875403,13.1496822 16.2542365,11.9758906 16.2542365,9.3785218 C16.2542365,6.85377679 14.1830761,6.17076127 12.2370599,5.72923873 L11.5608293,5.5812269 C9.81710421,5.20076866 8.30607687,4.88011826 8.30607687,3.58017738 C8.30607687,1.73543237 10.2081168,1.52334072 11.0233126,1.52334072 C12.8183016,1.52334072 13.8599128,2.38678492 14.0350643,4.00586844 L14.0395876,4.06617886 L15.7378285,4.06617886 L15.7365721,3.99456024 C15.6383163,1.45297857 13.9458551,-1.77635684e-15 11.0914132,-1.77635684e-15 C8.81469475,-1.77635684e-15 6.51711899,1.1421286 6.51711899,3.70481892 C6.51711899,5.98731707 8.42971323,6.59042129 10.556912,7.056068 L10.9750643,7.14904656 C12.7700532,7.53151515 14.4698019,7.89237251 14.4698019,9.43003695 C14.4698019,11.3366001 12.5376068,11.6175462 11.3856778,11.6175462 C10.4134235,11.6175462 9.5349017,11.3700222 8.91295048,10.9192018 C8.21083666,10.4090761 7.83791722,9.64062084 7.83791722,8.69022912 L7.83791722,8.62464154 L6.13816851,8.62464154 Z" id="Fill-3166"></path>
    <path d="M26.1015965,11.6174708 C25.5990096,11.6174708 24.4289874,11.4973525 24.4289874,10.3675373 C24.4289874,9.27818034 25.3165558,8.96205322 26.1815078,8.80876423 C26.4443607,8.76428529 26.7295787,8.72734516 26.9936881,8.69492831 C27.6882631,8.6034575 28.3418773,8.51676127 28.7856615,8.25491353 C28.7856615,8.25491353 28.82034,8.23531264 28.7856615,8.25491353 L28.7856615,9.65637694 C28.7856615,10.4150318 28.0566593,11.6174708 26.1015965,11.6174708 L26.1015965,11.6174708 Z M31.3174427,11.5026297 L31.2269771,11.5352979 C31.0289579,11.6106859 30.8960237,11.6174708 30.799527,11.6174708 C30.4130377,11.6174708 30.3934368,11.4099024 30.3934368,10.6793925 L30.3934368,6.0553422 C30.3934368,4.344034 29.2704065,3.51526829 26.9559941,3.51526829 C25.5520177,3.51526829 23.1835772,3.91080414 23.0792905,6.58808426 L23.0792905,6.66045676 L24.6840503,6.66045676 L24.6870658,6.59662823 C24.7473762,5.47937768 25.443459,4.95090761 26.868544,4.95090761 C28.1863267,4.95090761 28.8022469,5.40323577 28.8022469,6.38503917 C28.8022469,7.20023503 27.9749889,7.31658389 26.8353732,7.47816556 C26.5091944,7.52415225 26.1772358,7.57164671 25.8266814,7.63874205 C24.2613747,7.94004287 22.7289874,8.4049357 22.7289874,10.4723267 C22.7289874,12.088646 23.8673466,13.0636644 25.7724021,13.0636644 C27.0512343,13.0636644 28.0883222,12.6108337 28.8839172,11.7511589 C28.9457354,12.8138788 29.615935,13.0636644 30.1866223,13.0636644 C30.6515152,13.0636644 31.0003104,12.9747066 31.284272,12.8010628 L31.3174427,12.7814619 L31.3174427,11.5026297 Z" id="Fill-3168"></path>
    <path d="M32.74102,3.753017 L32.74102,12.8757221 L34.3533186,12.8757221 L34.3533186,7.73325351 C34.3533186,6.01516038 35.3207982,4.97882631 36.9454102,4.97882631 C38.0292387,4.97882631 38.7054693,5.65756984 38.7054693,6.72632077 L38.7054693,12.8757221 L40.3177679,12.8757221 L40.3177679,6.90147228 C40.3177679,4.64083666 39.28068,3.54469475 37.1534812,3.54469475 C35.8583149,3.54469475 34.8935994,4.05180488 34.2610939,5.06125055 L34.2610939,3.753017 L32.74102,3.753017 Z" id="Fill-3170"></path>
    <path d="M46.2491722,11.6492343 C44.3727642,11.6492343 43.5301774,10.0188426 43.5301774,8.39222025 C43.5301774,7.36794826 43.7854915,4.98040946 46.1662454,4.98040946 C48.7264228,4.98040946 48.928714,7.54134072 48.928714,8.32261197 C48.928714,9.93566445 48.2238359,11.6492343 46.2491722,11.6492343 L46.2491722,11.6492343 Z M48.8759424,0.324696231 L48.8759424,4.86481449 C48.1934294,3.89884257 46.9600813,3.54477014 46.0076792,3.54477014 C43.4683592,3.54477014 41.8319364,5.403085 41.8319364,8.28793348 C41.8319364,9.6127524 42.2063636,10.8038832 42.8810865,11.6492343 C43.6269254,12.5880665 44.7215595,13.0939202 46.04085,13.0939202 C47.3603917,13.0939202 48.3778788,12.6084213 48.8759424,11.7783991 L48.8759424,12.8750436 L50.4882409,12.8750436 L50.4882409,0.324696231 L48.8759424,0.324696231 Z" id="Fill-3172"></path>
    <path d="M55.485085,11.6492343 C54.9809904,11.6492343 53.8169993,11.5276083 53.8169993,10.3977931 C53.8169993,9.30918995 54.6985366,8.9938167 55.5619808,8.83901996 C55.8263415,8.7952949 56.1025129,8.75760089 56.3801922,8.72417886 C57.0747672,8.63295935 57.7253659,8.54852476 58.1661345,8.28793348 C58.1661345,8.28793348 58.2025721,8.26456319 58.1661345,8.28793348 L58.1661345,9.68587879 C58.1661345,10.4460414 57.4386401,11.6492343 55.485085,11.6492343 L55.485085,11.6492343 Z M60.7009313,11.5328854 L60.6117221,11.5647997 C60.4111899,11.6401877 60.276748,11.6492343 60.1862823,11.6492343 C59.7904952,11.6492343 59.7724021,11.4394043 59.7724021,10.7116585 L59.7724021,6.08534664 C59.7724021,4.37428973 58.6493718,3.54477014 56.3455137,3.54477014 C54.9339985,3.54477014 52.5670658,3.94181375 52.4612712,6.62135551 L52.4597635,6.69071249 L54.0705543,6.69071249 L54.0750776,6.62889431 C54.1338803,5.51088987 54.823932,4.98040946 56.2535403,4.98040946 C57.5715743,4.98040946 58.1829712,5.44304065 58.1829712,6.41604878 C58.1829712,7.23199852 57.3599852,7.3473422 56.2188618,7.50766741 C55.8911752,7.55516186 55.5607243,7.60114856 55.2089135,7.66899778 C53.646371,7.97105248 52.1157428,8.43745307 52.1157428,10.5018285 C52.1157428,12.1194043 53.2463119,13.0954279 55.1546341,13.0954279 C56.4347228,13.0954279 57.4748263,12.6418433 58.265898,11.7844302 C58.3262084,12.8456423 58.998167,13.0954279 59.5670953,13.0954279 C60.0367627,13.0954279 60.3853067,13.0042084 60.6692683,12.8313186 L60.7009313,12.8122203 L60.7009313,11.5328854 Z" id="Fill-3174"></path>
    <path d="M66.9674353,3.5477354 L66.9056171,3.54471988 C65.3988618,3.49797931 64.3843902,4.09957576 63.627997,5.51410643 L63.627997,3.75304213 L62.1094309,3.75304213 L62.1094309,12.8749933 L63.7141907,12.8749933 L63.7141907,8.80881449 C63.7141907,6.37981227 64.736201,5.24069919 66.8995861,5.24069919 L66.9674353,5.24069919 L66.9674353,3.5477354 Z" id="Fill-3176"></path>
    <path d="M71.6126194,11.6492343 C69.7316881,11.6492343 68.8936245,10.0188426 68.8936245,8.39222025 C68.8936245,7.36794826 69.1474309,4.98040946 71.5279335,4.98040946 C74.0853466,4.98040946 74.2846223,7.54134072 74.2846223,8.32261197 C74.2846223,9.93566445 73.5840163,11.6492343 71.6126194,11.6492343 L71.6126194,11.6492343 Z M74.2348662,0.324696231 L74.2348662,4.86481449 C73.5523533,3.89884257 72.3235285,3.54477014 71.3575565,3.54477014 C68.8287908,3.54477014 67.186337,5.403085 67.186337,8.28793348 C67.186337,9.6127524 67.5607642,10.8038832 68.2445336,11.6492343 C68.9903725,12.5880665 70.0772166,13.0939202 71.4012816,13.0939202 C72.7205721,13.0939202 73.7395669,12.6064109 74.2348662,11.7783991 L74.2348662,12.8750436 L75.8516881,12.8750436 L75.8516881,0.324696231 L74.2348662,0.324696231 Z" id="Fill-3178"></path>
    <path d="M9.46546933,25.5544302 L9.46094605,25.6164996 C9.29634885,27.7811412 7.95268293,29.1353614 5.95087953,29.1353614 C4.56801183,29.1353614 3.49800443,28.6332772 2.77478197,27.6218211 C2.12996305,26.7365144 1.78443459,25.4858271 1.78443459,23.9994265 C1.78443459,22.6462114 2.14076866,21.427187 2.77327421,20.5521833 C3.49473762,19.5643489 4.59087953,19.0419098 5.93127864,19.0419098 C7.74888396,19.0419098 9.02168514,20.0096408 9.34308943,21.6337502 L9.35062823,21.6890347 L11.1380783,21.6890347 L11.1245085,21.6126415 C10.9418182,20.3287834 10.3364523,19.2766179 9.37173688,18.5571648 C8.46456763,17.8786726 7.28097561,17.5200769 5.95087953,17.5200769 C4.1181966,17.5200769 2.58756837,18.1905277 1.52183296,19.4585543 C0.543547672,20.6263149 0,22.2891234 0,24.1210525 C0,28.1525528 2.22972653,30.6599586 5.81216556,30.6599586 C7.35184035,30.6599586 8.66384331,30.1973274 9.59815225,29.3193082 C10.5221582,28.455864 11.0913378,27.1704982 11.2468884,25.6278078 L11.255935,25.5544302 L9.46546933,25.5544302 Z" id="Fill-3180"></path>
    <path d="M12.8017162,17.8032343 L12.8017162,30.3761981 L14.4155225,30.3761981 L14.4155225,25.2231752 C14.4155225,23.4960355 15.3847613,22.4695018 17.0061064,22.4695018 C18.0929505,22.4695018 18.7661656,23.1344242 18.7661656,24.2079497 L18.7661656,30.3761981 L20.3784642,30.3761981 L20.3784642,24.378578 C20.3784642,22.1282454 19.3458995,21.0346164 17.218952,21.0346164 C16.2587598,21.0346164 14.9877177,21.3969815 14.4155225,22.4174841 L14.4155225,17.8032343 L12.8017162,17.8032343 Z" id="Fill-3182"></path>
    <path d="M25.1686445,29.1368441 C24.6615344,29.1368441 23.4960355,29.0174797 23.4960355,27.8753511 C23.4960355,26.7869993 24.3790806,26.4829342 25.2485558,26.3288914 C25.5114087,26.2829047 25.789088,26.2479749 26.0549564,26.2143016 C26.7553112,26.1235846 27.4119409,26.0388987 27.8466785,25.7747894 C27.8466785,25.7747894 27.8828647,25.7544346 27.8466785,25.7747894 L27.8466785,27.1651959 C27.8466785,27.9253585 27.1221996,29.1368441 25.1686445,29.1368441 L25.1686445,29.1368441 Z M23.7541138,24.1700296 L23.7541138,24.1036881 C23.8131678,22.9904582 24.504476,22.469527 25.9310687,22.469527 C27.251867,22.469527 27.8632639,22.9238655 27.8632639,23.8953659 C27.8632639,24.7218699 27.042037,24.8374649 25.8976467,24.9972875 C25.5747347,25.0427716 25.247048,25.0917738 24.8954885,25.1573614 C23.326915,25.4594161 21.7945277,25.9250628 21.7945277,27.9818995 C21.7945277,29.6055063 22.9343947,30.5732373 24.8379424,30.5732373 C26.1107435,30.5732373 27.156878,30.1309608 27.946442,29.2740503 C28.0082602,30.333252 28.6832343,30.5732373 29.2566859,30.5732373 C29.7155477,30.5732373 30.0613274,30.4925721 30.3480532,30.3219438 L30.3784597,30.3023429 L30.3784597,29.0235107 L30.2907583,29.0551737 C30.0872106,29.130813 29.9542764,29.1368441 29.8620517,29.1368441 C29.4770702,29.1368441 29.4604848,28.9300296 29.4604848,28.1894678 L29.4604848,23.5646637 C29.4604848,21.8611456 28.3329313,21.0361493 26.0185188,21.0361493 C24.6130347,21.0361493 22.2476098,21.4339468 22.1418152,24.0999187 L22.1418152,24.1700296 L23.7541138,24.1700296 Z" id="Fill-3184"></path>
    <path d="M71.6126194,29.1368441 C69.7286726,29.1368441 68.8936245,27.4996674 68.8936245,25.8835994 C68.8936245,24.8593274 69.1474309,22.469527 71.5279335,22.469527 C74.0883622,22.469527 74.2846223,25.0322173 74.2846223,25.8124834 C74.2846223,27.4157354 73.5840163,29.1368441 71.6126194,29.1368441 L71.6126194,29.1368441 Z M75.8516881,30.3664228 L75.8516881,17.8160754 L74.2348662,17.8160754 L74.2348662,22.3531781 C73.5523533,21.3892166 72.3235285,21.0361493 71.3575565,21.0361493 C68.8287908,21.0361493 67.1878448,22.8922025 67.1878448,25.7793126 C67.1878448,27.0913156 67.5577487,28.291493 68.2445336,29.1406135 C68.9903725,30.0766814 70.0772166,30.5732373 71.4012816,30.5732373 C72.7205721,30.5732373 73.7395669,30.0962823 74.2348662,29.2667627 L74.2348662,30.3664228 L75.8516881,30.3664228 Z" id="Fill-3186"></path>
    <path d="M46.8651175,22.4679941 C48.2133067,22.4679941 49.2790421,23.4967894 49.3815698,24.8781493 L44.3682661,24.8781493 C44.4873792,23.6628943 45.2950362,22.4679941 46.8651175,22.4679941 L46.8651175,22.4679941 Z M49.3242749,27.5358285 C49.0465957,28.569901 48.2675861,29.1353112 47.0915329,29.1353112 C46.2612594,29.1353112 45.5621611,28.8787406 45.0882217,28.3864568 C44.6052358,27.8725617 44.3471574,27.1440621 44.3607273,26.3137886 L51.0210081,26.3137886 L51.0860931,26.3137886 L51.0906164,26.2474472 C51.1539424,24.6268559 50.6558788,23.0861759 49.7575048,22.151867 C49.0405647,21.4113052 48.0999734,21.0346164 46.9540754,21.0346164 C44.4647627,21.0346164 42.6607273,23.0258655 42.6607273,25.7785336 C42.7574752,28.8302409 44.3574605,30.5732121 47.040269,30.5732121 C49.0963518,30.5732121 50.507867,29.4690288 50.9320503,27.5358285 L49.3242749,27.5358285 Z" id="Fill-3188"></path>
    <path d="M61.910105,22.4679941 C63.2537709,22.4679941 64.3285528,23.4967894 64.4298241,24.8781493 L59.4072225,24.8781493 C59.5278433,23.6628943 60.3475625,22.4679941 61.910105,22.4679941 L61.910105,22.4679941 Z M64.3662469,27.5569372 C64.0870599,28.5789475 63.2959882,29.1353112 62.1350126,29.1353112 C61.3062469,29.1353112 60.6149387,28.8787406 60.1392402,28.384949 C59.6441922,27.8725617 59.3906371,27.1440621 59.4026992,26.3122809 L66.0675033,26.3122809 L66.1325883,26.3122809 L66.1340961,26.2474472 C66.2004375,24.6268559 65.702374,23.0876837 64.7994767,22.1533747 C64.0900754,21.4105514 63.1389298,21.0346164 61.9978064,21.0346164 C59.5052269,21.0346164 57.7087302,23.0258655 57.7087302,25.7785336 C57.8009549,28.8302409 59.3981759,30.5732121 62.0852565,30.5732121 C64.1383237,30.5732121 65.5438078,29.4780754 65.9710067,27.5569372 L64.3662469,27.5569372 Z" id="Fill-3190"></path>
    <path d="M33.4111944,30.3746401 L33.4111944,26.2979069 C33.4111944,23.8591042 34.4241582,22.7300429 36.5980976,22.7300429 L36.6659468,22.7300429 L36.6659468,21.0360739 L36.5980976,21.0345661 C35.088578,20.9855639 34.0710909,21.589422 33.3237443,22.9941523 L33.3237443,21.2315802 L31.797388,21.2315802 L31.797388,30.3746401 L33.4111944,30.3746401 Z" id="Fill-3192"></path>
    <path d="M54.291014,30.3664228 L54.291014,26.2979823 C54.291014,23.8606874 55.2994545,22.7283592 57.4764095,22.7283592 L57.5427509,22.7283592 L57.5427509,21.0361493 L57.479425,21.0361493 C55.9606075,20.9861419 54.9491515,21.5894974 54.2035639,22.9924686 L54.2035639,21.2361789 L52.6787154,21.2361789 L52.6787154,30.3664228 L54.291014,30.3664228 Z" id="Fill-3194"></path>
    <path d="M41.8470894,28.9405085 L40.7011914,28.9405085 C39.9314797,28.9405085 39.6143474,28.4514915 39.6143474,27.7312846 L39.6143474,22.6724967 L41.8470894,22.6724967 L41.8470894,21.2436423 L39.6143474,21.2436423 L39.6143474,18.548269 L38.0020488,18.548269 L38.0020488,27.7101759 C38.0020488,29.6531766 38.9773186,30.4804346 40.7011914,30.4804346 L41.8470894,30.4804346 L41.8470894,28.9405085 Z" id="Fill-3196"></path>
</g>
</svg>