<?xml version="1.0" encoding="utf-8"?>
<svg version="1.1" xmlns="http://www.w3.org/2000/svg" xmlns:xlink="http://www.w3.org/1999/xlink" width="500px" height="174px" viewBox="0 171 500 174" enable-background="new 0 171 500 174">
  <path style="fill: #58595b;" d="M81.5 238.8c0-1.7-.3-3.6-.6-5.2H31.1c-.3 1.7-.6 3.6-.6 5.2 0 1.9.3 3.6.6 5.5h18.4v60.6c1.1 0 2.2.3 3 .3 2.5 0 4.7.3 7.2 0 .8 0 1.9-.3 2.8-.3v-60.6h18.4c.3-1.6.6-3.5.6-5.5zm37.7 21c-1.9-2.2-4.1-3.9-6.9-5-2.8-1.1-5.8-1.9-9.4-1.9-4.1 0-7.7.8-10.7 2.2-3 1.4-5.5 3.3-7.7 5.8-1.9 2.5-3.6 5.2-4.7 8.5s-1.7 6.9-1.7 10.5c0 3.9.6 7.4 1.7 10.5 1.1 3.3 2.5 6.1 4.7 8.3s5 4.1 8.3 5.5c3.3 1.4 7.4 1.9 12.1 1.9 6.3 0 11.8-.8 16.8-2.8 0-1.9-.3-3.6-.8-5.2-.6-1.4-.8-2.8-1.4-3.9-1.9.8-4.1 1.4-6.3 1.7-2.5.6-5 .6-7.2.6-4.4 0-8-1.1-10.7-3s-4.4-5.2-4.7-9.6v-1.1h33.9c0-.6.3-1.4.3-2.2 0-1.1.3-2.5.3-3.9 0-3.3-.6-6.6-1.4-9.6-1.2-2.6-2.6-5.1-4.5-7.3zm-5.8 15.1H90.9v-1.4c.3-3.6 1.4-6.6 3.3-8.5 1.9-2.2 4.7-3 8.5-3 3.3 0 5.8 1.1 7.7 3.3 1.7 2.2 2.8 5 3 8.5v1.1zm143.5-17.1c-5.2-4.4-13.2-5.8-24-4.1-2.8.6-5.5 1.1-8.3 1.9 0 1.7.3 3.3.6 4.7s.8 2.8 1.7 4.1c3.9-1.4 7.7-1.9 11.3-1.9 1.7 0 3.3 0 4.7.3 1.4.3 2.8.6 3.9 1.4 1.1.6 1.9 1.7 2.5 2.8s.8 2.8.8 4.4v2.2H249c-2.2-.3-4.4-.3-6.3-.3-2.8 0-5.2.3-8 .8-2.5.6-5 1.4-7.2 2.8-1.9 1.1-3.9 3-5 5-1.4 1.9-1.9 4.7-1.9 7.7s.6 5.8 1.7 7.7c1.1 2.2 2.5 3.9 4.4 5.2s4.4 2.2 7.2 3c2.8.6 6.1.8 9.4.8 4.1 0 8-.3 11.3-1.1 3-.6 5.8-1.1 8-1.9v-30c.1-7.2-1.9-12.4-5.7-15.5zm-7.2 38.3c-.8 0-1.7.3-2.8.6s-2.2.3-3.3.3c-.8 0-1.9 0-3.3-.3-1.4 0-2.5-.3-3.6-.8s-2.2-1.4-3-2.5-1.4-2.8-1.4-4.7c0-3 1.1-5.2 3.3-6.6s5-1.9 8.3-1.9c.8 0 1.7 0 2.8.3 1.1 0 1.9.3 2.8.3h.8v15.1h.3l-.9.2zm58.7-16.8c-1.1-1.1-2.2-1.9-3.6-2.8-1.4-.8-3-1.4-5-1.9l-5.8-1.7c-1.9-.6-3.3-1.1-4.1-1.9-1.1-.8-1.9-2.2-1.9-3.9 0-1.9.8-3.3 2.5-4.1 1.4-.8 3.3-1.1 5.8-1.1 2.2 0 4.4.3 6.3.8 1.7.6 3.3.8 4.7 1.4.6-1.1 1.1-2.5 1.4-4.1.6-1.7.8-3 .8-4.7-2.5-.8-4.7-1.4-6.9-1.9-2.5-.6-5-.8-7.7-.8-6.1 0-11 1.4-14.6 4.1s-5.2 6.3-5.2 11.3c0 3.9 1.1 6.9 3 8.8s5 3.6 8.5 4.7l6.3 1.9c1.9.6 3.3 1.4 4.4 1.9 1.4.8 1.9 2.5 1.9 4.4 0 1.4-.3 2.5-1.1 3.3s-1.7 1.4-2.8 1.9-2.2.8-3.3 1.1-2.2.3-3.3.3c-2.2 0-4.4-.3-6.3-.6-1.7-.3-3.6-.8-5.5-1.7-.6 1.4-1.1 3-1.7 4.4-.6 1.7-.8 3-.8 4.7 1.1.6 2.2.8 3.3 1.1 1.1.3 2.5.6 3.6.8 1.1.3 2.5.3 3.9.6 1.4 0 2.8.3 4.4.3 3.6 0 6.6-.6 9.4-1.4 2.8-.8 5-2.2 6.9-3.6 1.7-1.7 3-3.3 4.1-5.5 1.1-1.9 1.4-4.1 1.4-6.6 0-2.2-.3-4.4-.8-5.8-.6-1.5-1.4-2.6-2.2-3.7zm50.1-25l-10.2 37.4c-.3 1.9-1.7 2.8-2.5 2.8-1.7 0-3-1.7-3.6-3.9-1.7-5.2-7.7-31.7-8.5-36.1-.8-.3-1.9-.3-3-.3h-7.4c-.8 0-1.9.3-3 .3l11.6 39.4c2.2 10.7 9.4 11.6 11.3 11.6h2l-2.2 7.7c-.6 1.9-1.1 3.6-1.9 5-.8 1.1-1.7 2.2-2.5 2.8s-1.9.8-2.8 1.1c-1.9.3-3.9.3-5.8 0-.6 0-1.1-.3-1.7-.3-.3 1.1-.8 2.2-1.1 3.3-.3 1.4-.6 2.8-.6 4.4v.8c1.4.3 2.5.6 3.9.8 3 .6 7.2.6 10.5-.3 1.7-.3 3-1.1 4.4-1.9 1.4-2.2 2.8-3.3 3.6-5 1.1-1.7 1.9-3.6 2.8-6.1l19.3-63.9c-1.1-.3-2.2-.3-3-.3-3.8.1-6.6.1-9.6.7zm53.9 28.9c-.6-1.7-1.4-2.8-2.2-3.9-1.1-1.1-2.2-1.9-3.6-2.8-1.4-.8-3-1.4-5-1.9l-5.8-1.7c-1.9-.6-3.3-1.1-4.1-1.9-1.1-.8-1.9-2.2-1.9-3.9 0-1.9.8-3.3 2.5-4.1 1.4-.8 3.3-1.1 5.8-1.1 2.2 0 4.4.3 6.3.8 1.7.6 3.3.8 4.7 1.4.6-1.1 1.1-2.5 1.4-4.1.6-1.7.8-3 .8-4.7-2.5-.8-4.7-1.4-6.9-1.9-2.5-.6-5-.8-7.7-.8-6.1 0-11 1.4-14.6 4.1-3.6 2.8-5.2 6.3-5.2 11.3 0 3.9 1.1 6.9 3 8.8 1.9 1.9 5 3.6 8.5 4.7l6.3 1.9c1.9.6 3.3 1.4 4.4 1.9 1.4.8 1.9 2.5 1.9 4.4 0 1.4-.3 2.5-1.1 3.3-.8.8-1.7 1.4-2.8 1.9-1.1.6-2.2.8-3.3 1.1-1.1.3-2.2.3-3.3.3-2.2 0-4.4-.3-6.3-.6-1.7-.3-3.6-.8-5.5-1.7-.6 1.4-1.1 3-1.7 4.4-.6 1.7-.8 3-.8 4.7 1.1.6 2.2.8 3.3 1.1 1.1.3 2.5.6 3.6.8 1.1.3 2.5.3 3.9.6 1.4 0 2.8.3 4.4.3 3.6 0 6.6-.6 9.4-1.4s5-2.2 6.9-3.6c1.7-1.7 3-3.3 4.1-5.5 1.1-1.9 1.4-4.1 1.4-6.6.1-2-.2-4.2-.8-5.6zm-205.1-21.8c-3-5.5-8.8-8.5-16.8-8.5h-.3c-1.9 0-11.8.3-16.8 7.2l-.8 1.1-.8-1.1c-5-6.6-14.9-7.2-16.8-7.2h-.3c-6.1 0-11 1.7-14.3 5-5 5-5 11.8-5 11.8v35.2c1.9.6 3.9.8 6.1.8 3 0 5.5-.6 6.6-.8v-30.3c0-.3-.3-5.8 2.8-9.1 1.4-1.4 3-2.2 5.2-2.2 3 0 5.5 1.1 7.4 2.8 3.3 3.3 3 8.5 3 8.8v29.5c1.1.3 3 .6 5.8.6h.3l.3.8v-.8h.3c2.8 0 4.7-.6 5.8-.6v-29.5c0-.3-.3-5.5 3-8.8 1.9-1.9 4.4-2.8 7.4-2.8 2.2 0 3.9.8 5.2 2.2 3 3.3 2.8 8.8 2.8 9.1v30c1.1.3 3.6.8 6.6.8 2.2 0 4.1-.3 6.1-.8l-.3-34.7c0 .1 0-4.3-2.5-8.5z"></path>
  <path style="fill: #00aaa4;" d="M473.8 206.1c-1.1 0-6.6.3-8.5.3-1.7 0-4.7 0-9.6.6-8 1.1-13.2 5-13.8 5.5-.8-1.7-1.7-3.6-1.7-3.6-.6-2.2-.8-4.1-.8-5.8 0-.8.3-1.1.3-1.1 4.1-1.1 6.9-4.7 6.9-9.1 0-5.2-4.4-9.6-9.6-9.6s-9.6 4.4-9.6 9.6c0 11.6 11 22.9 11 22.9-5.8 6.1-11 16.2-11 22.6 0 5.2 4.4 9.6 9.6 9.6s9.6-4.4 9.6-9.6c0-4.4-3-8-6.9-9.1-.3-.3-.3-.6-.3-.8 0-5.2 2.5-9.4 2.5-9.4 6.6 6.1 19 6.6 23.4 6.3h8.5c5.2 0 9.6-4.4 9.6-9.6.1-5.3-4.3-9.7-9.6-9.7zm-45.4 28.3zm18.7-15.9s-2.2-1.4-3-2.8c6.6-6.6 15.1-5.8 20.9-4.1h.3c-.6 1.4-.8 2.8-.8 4.1s.3 3 1.1 4.1v.3c-9.1 2.8-15.2.6-18.5-1.6z"></path>
  <circle style="fill: #fd0006;" cx="413.8" cy="215.7" r="9.6"></circle>
</svg>
